<svg xmlns="http://www.w3.org/2000/svg" viewBox="0 0 128 128" fill="none">
  <path d="M91.2 41.6L72 28.8c-4.8-3.2-11.2-3.2-16 0L36.8 41.6c-4.8 3.2-7.2 8-7.2 13.6v25.6c0 5.6 2.4 10.4 7.2 13.6l19.2 12.8c4.8 3.2 11.2 3.2 16 0l19.2-12.8c4.8-3.2 7.2-8 7.2-13.6V55.2c0-5.6-2.4-10.4-7.2-13.6z" fill="#8247E5"/>
  <path d="M80 60.8l-12-8c-1.6-1.2-4-1.2-5.6 0l-12 8c-1.6 1.2-2.4 2.8-2.4 4.8v16c0 2 .8 3.6 2.4 4.8l12 8c1.6 1.2 4 1.2 5.6 0l12-8c1.6-1.2 2.4-2.8 2.4-4.8v-16c0-2-.8-3.6-2.4-4.8z" fill="#fff"/>
</svg>
